<svg id="Layer_1" height="512" viewBox="0 0 24 24" width="512" xmlns="http://www.w3.org/2000/svg" data-name="Layer 1">
<path opacity="0.05" fill-rule="evenodd" clip-rule="evenodd" d="M12 1C10.8954 1 10 1.89543 10 3V37C10 38.1046 10.8954 39 12 39H27.9C29.0046 39 29.9 38.1046 29.9 37V3C29.9 1.89543 29.0046 1 27.9 1H24.6631V2H15.2368V1H12Z" fill="#0045FF"/>
<path d="m5 11.5a1.5 1.5 0 0 1 1.5-1.5h11a1.5 1.5 0 0 1 0 3h-11a1.5 1.5 0 0 1 -1.5-1.5zm1.5 6.5h7a1.5 1.5 0 0 0 0-3h-7a1.5 1.5 0 0 0 0 3zm17.5-11.5v11a5.506 5.506 0 0 1 -5.5 5.5h-13a5.506 5.506 0 0 1 -5.5-5.5v-11a5.506 5.506 0 0 1 5.5-5.5h13a5.506 5.506 0 0 1 5.5 5.5zm-16-2a1.5 1.5 0 1 0 1.5-1.5 1.5 1.5 0 0 0 -1.5 1.5zm-5 0a1.5 1.5 0 1 0 1.5-1.5 1.5 1.5 0 0 0 -1.5 1.5zm18 3.5h-18v9.5a2.5 2.5 0 0 0 2.5 2.5h13a2.5 2.5 0 0 0 2.5-2.5z" fill="#0045FF"/></svg>