<?xml version="1.0" encoding="UTF-8"?>
<svg xmlns="http://www.w3.org/2000/svg" id="Bold" viewBox="0 0 24 24" width="512" height="512">
<path opacity="0.05" fill-rule="evenodd" clip-rule="evenodd" d="M12 1C10.8954 1 10 1.89543 10 3V37C10 38.1046 10.8954 39 12 39H27.9C29.0046 39 29.9 38.1046 29.9 37V3C29.9 1.89543 29.0046 1 27.9 1H24.6631V2H15.2368V1H12Z" fill="#0045FF"/>
<path d="M21.5,2h-8A2.5,2.5,0,0,0,11,4.5v.3L9.735,2.606A2.536,2.536,0,0,0,8.213,1.378,2.5,2.5,0,0,0,5.367,2.541L.375,11.187a2.538,2.538,0,0,0-.3,1.931A2.5,2.5,0,0,0,2.5,15H5.2a7.074,7.074,0,1,0,13.6,0h2.7A2.5,2.5,0,0,0,24,12.5v-8A2.5,2.5,0,0,0,21.5,2ZM3.37,12,7.532,4.791,10.542,10a7.052,7.052,0,0,0-3.613,2ZM12,21a4.074,4.074,0,1,1,4.074-4.074A4.079,4.079,0,0,1,12,21Zm9-9H17.071A7.473,7.473,0,0,0,14,10.138V5h7Z" fill="#0045FF"/></svg>
