<?xml version="1.0" encoding="UTF-8"?>

<svg xmlns="http://www.w3.org/2000/svg" id="Bold" viewBox="0 0 24 24" width="512" height="512">
path opacity="0.05" fill-rule="evenodd" clip-rule="evenodd" d="M12 1C10.8954 1 10 1.89543 10 3V37C10 38.1046 10.8954 39 12 39H27.9C29.0046 39 29.9 38.1046 29.9 37V3C29.9 1.89543 29.0046 1 27.9 1H24.6631V2H15.2368V1H12Z" fill="#0045FF"/>
<path d="M21,15.036V11.5a9.006,9.006,0,0,0-4.578-7.836,4.5,4.5,0,0,0-8.844,0A9.006,9.006,0,0,0,3,11.5v3.536A3.5,3.5,0,0,0,0,18.5v2A3.5,3.5,0,0,0,3.5,24h2A3.5,3.5,0,0,0,9,20.5v-2a3.5,3.5,0,0,0-3-3.464V11.5A5.988,5.988,0,0,1,8.181,6.877a4.5,4.5,0,0,0,7.638,0A5.988,5.988,0,0,1,18,11.5v3.536A3.5,3.5,0,0,0,15,18.5v2A3.5,3.5,0,0,0,18.5,24h2A3.5,3.5,0,0,0,24,20.5v-2A3.5,3.5,0,0,0,21,15.036ZM6,20.5a.5.5,0,0,1-.5.5h-2a.5.5,0,0,1-.5-.5v-2a.5.5,0,0,1,.5-.5h2a.5.5,0,0,1,.5.5ZM12,6a1.5,1.5,0,1,1,1.5-1.5A1.5,1.5,0,0,1,12,6Zm9,14.5a.5.5,0,0,1-.5.5h-2a.5.5,0,0,1-.5-.5v-2a.5.5,0,0,1,.5-.5h2a.5.5,0,0,1,.5.5Z" fill="#0045FF"/></svg>
